<svg width="18" height="10" viewBox="0 0 18 10" fill="none"
     xmlns="http://www.w3.org/2000/svg">
    <path d="M2.7041 3.23828C2.18457 3.75781 1.9248 4.38672 1.9248 5.125C1.9248 5.86328 2.18457 6.50586 2.7041 7.05273C3.22363 7.57227 3.86621 7.83203 4.63184 7.83203H8.11816V9.51367H4.63184C3.42871 9.51367 2.38965 9.08984 1.51465 8.24219C0.666992 7.36719 0.243164 6.32812 0.243164 5.125C0.243164 3.92188 0.666992 2.89648 1.51465 2.04883C2.38965 1.17383 3.42871 0.736328 4.63184 0.736328H8.11816V2.41797H4.63184C3.86621 2.41797 3.22363 2.69141 2.7041 3.23828ZM5.49316 5.98633V4.26367H12.5068V5.98633H5.49316ZM13.3682 0.736328C14.5713 0.736328 15.5967 1.17383 16.4443 2.04883C17.3193 2.89648 17.7568 3.92188 17.7568 5.125C17.7568 6.32812 17.3193 7.36719 16.4443 8.24219C15.5967 9.08984 14.5713 9.51367 13.3682 9.51367H9.88184V7.83203H13.3682C14.1064 7.83203 14.7354 7.57227 15.2549 7.05273C15.8018 6.50586 16.0752 5.86328 16.0752 5.125C16.0752 4.38672 15.8018 3.75781 15.2549 3.23828C14.7354 2.69141 14.1064 2.41797 13.3682 2.41797H9.88184V0.736328H13.3682Z"
          fill="#1B215C"></path>
</svg>