<svg width="89" height="43" viewBox="0 0 89 43" fill="none" xmlns="http://www.w3.org/2000/svg">
<g id="Logo">
<path id="Subtract" fill-rule="evenodd" clip-rule="evenodd" d="M19.2627 14.7315L24.4378 0.5H34.0876L39.2627 14.7315L44.4378 0.5H54.0876L59.2627 14.7315L64.4378 0.5H74.0876L81.9058 22H86.9749L84.0988 27.5H74.4378L69.2627 13.2685L64.0876 27.5H54.4378L49.2627 13.2685L44.0876 27.5H34.4378L29.2627 13.2685L24.0876 27.5H14.4378L6.66395 6.12183L6.43772 6H1.5498L4.41439 0.5H14.0876L19.2627 14.7315Z" fill="#2E357C"/>
<g id="Group">
<path id="Vector" d="M49.2622 14H39.2622L44.2622 0.25L49.2622 14Z" fill="#AA0959"/>
<path id="Vector_2" d="M39.2622 14H49.2622L44.2622 27.75L39.2622 14Z" fill="#890A50"/>
<path id="Vector_3" d="M44.2622 27.75H34.2622L39.2622 14L44.2622 27.75Z" fill="#6B0341"/>
<path id="Vector_4" d="M44.2622 0.25H54.2622L49.2622 14L44.2622 0.25Z" fill="#C9085F"/>
<path id="Vector_5" d="M29.2622 14H39.2622L34.2622 27.75L29.2622 14Z" fill="#414C9E"/>
<path id="Vector_6" d="M59.2622 14H49.2622L54.2622 0.25L59.2622 14Z" fill="#2E357C"/>
<path id="Vector_7" d="M39.2622 14H29.2622L34.2622 0.25L39.2622 14Z" fill="#38419A"/>
<path id="Vector_8" d="M49.2622 14H59.2622L54.2622 27.75L49.2622 14Z" fill="#4652B0"/>
<path id="Vector_9" d="M24.2622 0.25H34.2622L29.2622 14L24.2622 0.25Z" fill="#2E357C"/>
<path id="Vector_10" d="M64.2622 27.75H54.2622L59.2622 14L64.2622 27.75Z" fill="#7389EA"/>
<path id="Vector_11" d="M29.2622 14H19.2622L24.2622 0.25L29.2622 14Z" fill="#38419A"/>
<path id="Vector_12" d="M59.2622 14H69.2622L64.2622 27.75L59.2622 14Z" fill="#414C9E"/>
<path id="Vector_13" d="M19.2622 14H29.2622L24.2622 27.75L19.2622 14Z" fill="#414C9E"/>
<path id="Vector_14" d="M69.2622 14H59.2622L64.2622 0.25L69.2622 14Z" fill="#38419A"/>
<path id="Vector_15" d="M24.2622 27.75H14.2622L19.2622 14L24.2622 27.75Z" fill="#5261DF"/>
<path id="Vector_16" d="M64.2622 0.25H74.2622L69.2622 14L64.2622 0.25Z" fill="#868FCB"/>
<path id="Vector_17" d="M9.26221 14H19.2622L14.2622 27.75L9.26221 14Z" fill="#5C6DF9"/>
<path id="Vector_18" d="M79.2622 14H69.2622L74.2622 0.25L79.2622 14Z" fill="#7C84C6"/>
<path id="Vector_19" d="M19.2622 14H9.26221L14.2622 0.25L19.2622 14Z" fill="#6A79F8"/>
<path id="Vector_20" d="M69.2622 14H79.2622L74.2622 27.75L69.2622 14Z" fill="#6F77B1"/>
<path id="Vector_21" d="M4.26221 0.25H14.2622L9.26221 14L4.26221 0.25Z" fill="#7A87F8"/>
<path id="Vector_22" d="M84.2622 27.75H74.2622L79.2622 14L84.2622 27.75Z" fill="#636B9E"/>
<path id="Vector_23" d="M1.13672 6.25L4.26172 0.25L6.43672 6.25H1.13672Z" fill="#414C9E"/>
<path id="Vector_24" d="M87.3872 21.75L84.2497 27.75L82.0747 21.75H87.3872Z" fill="#414C9E"/>
</g>
<path id="Vector_25" fill-rule="evenodd" clip-rule="evenodd" d="M8.21529 42.2125H8.56877L11.093 35.2875H10.1783L8.18498 41.1386L6.13299 35.2875H5.35511L3.27862 41.1416L1.28425 35.2875H0.370117L2.88109 42.2125H3.24731L3.27148 42.2835L3.29664 42.2125H3.66945L5.74803 36.423L7.77964 42.2125H8.1642L8.19012 42.2864L8.21529 42.2125Z" fill="white"/>
<path id="Vector_26" fill-rule="evenodd" clip-rule="evenodd" d="M12.5531 38.95H19.0879V38.7625C19.0879 37.6772 18.7329 36.761 18.0859 36.1157C17.439 35.4704 16.5166 35.1125 15.4129 35.1125C14.2982 35.1125 13.3696 35.4632 12.7188 36.1039C12.0678 36.7449 11.7129 37.6586 11.7129 38.75C11.7129 39.8406 12.0611 40.7486 12.7098 41.3839C13.3582 42.0189 14.2872 42.3625 15.4129 42.3625C17.1781 42.3625 18.454 41.5075 18.7572 40.3085L18.8162 40.075H17.8766L17.8345 40.2046C17.5676 41.0276 16.6235 41.625 15.4129 41.625C14.5718 41.625 13.8885 41.3942 13.401 40.934C12.9462 40.5046 12.641 39.8559 12.5531 38.95ZM15.4129 35.8375C16.1716 35.8375 16.8729 36.0616 17.3811 36.4902C17.8479 36.8838 18.1634 37.4593 18.2076 38.225H12.5601C12.6652 37.4808 12.989 36.9058 13.4509 36.5076C13.9556 36.0726 14.6382 35.8375 15.4129 35.8375Z" fill="white"/>
<path id="Vector_27" fill-rule="evenodd" clip-rule="evenodd" d="M21.0752 32.7625H20.2627V42.2125H21.0752V40.9918C21.3758 41.4224 21.7379 41.7326 22.1342 41.9476C22.7021 42.2557 23.3289 42.3625 23.9252 42.3625C25.0284 42.3625 25.9508 42.008 26.5979 41.3659C27.2451 40.7237 27.6002 39.8104 27.6002 38.725C27.6002 37.6455 27.2449 36.7382 26.5974 36.1007C25.9501 35.4635 25.0279 35.1125 23.9252 35.1125C23.346 35.1125 22.7349 35.1959 22.1706 35.4864C21.7662 35.6946 21.3932 36.0054 21.0752 36.4547V32.7625ZM26.7627 38.725C26.7627 39.5942 26.4687 40.317 25.9727 40.8217C25.477 41.3261 24.7675 41.625 23.9127 41.625C23.0574 41.625 22.3513 41.3289 21.8591 40.8266C21.3666 40.3239 21.0752 39.6013 21.0752 38.725C21.0752 37.8558 21.3691 37.1364 21.8648 36.6349C22.3603 36.1336 23.0698 35.8375 23.9252 35.8375C24.7794 35.8375 25.4858 36.1391 25.9786 36.6435C26.4718 37.1484 26.7627 37.8683 26.7627 38.725Z" fill="white"/>
<path id="Vector_28" fill-rule="evenodd" clip-rule="evenodd" d="M33.1002 38.425H28.5127V39.125H33.1002V38.425Z" fill="white"/>
<path id="Vector_29" fill-rule="evenodd" clip-rule="evenodd" d="M35.2375 35.2875H34.4375V42.2125H35.2375V38.2125C35.2375 36.9082 36.423 35.8375 37.85 35.8375C38.6497 35.8375 39.186 36.0473 39.5271 36.4308C39.8723 36.819 40.05 37.4208 40.05 38.275V42.2125H40.85V38.2125C40.85 36.8305 42.0244 35.8375 43.6125 35.8375C44.4188 35.8375 44.9048 36.0471 45.1994 36.4221C45.5028 36.8082 45.6375 37.4105 45.6375 38.275V42.2125H46.4375V37.675C46.4375 36.8124 46.2382 36.1566 45.7679 35.7217C45.3011 35.29 44.6059 35.1125 43.7 35.1125C42.879 35.1125 42.1703 35.2598 41.6003 35.5732C41.1568 35.817 40.8032 36.1581 40.5487 36.5962C40.3547 36.1295 40.1201 35.7798 39.805 35.5373C39.3989 35.2248 38.8882 35.1125 38.2375 35.1125C37.4104 35.1125 36.7017 35.2598 36.1316 35.5732C35.7738 35.7699 35.4748 36.0297 35.2375 36.3524V35.2875Z" fill="white"/>
<path id="Vector_30" fill-rule="evenodd" clip-rule="evenodd" d="M48.3672 41.2432L48.3689 41.2454L48.3707 41.2474C49.0383 42.0219 50.0449 42.4375 51.2877 42.4375C52.5811 42.4375 53.617 41.9961 54.273 41.1528C54.7541 40.538 55.0004 39.7319 54.9877 38.7737C54.9874 37.6707 54.6326 36.7686 53.98 36.1428C53.3281 35.5177 52.3995 35.1875 51.2877 35.1875C50.176 35.1875 49.2444 35.5177 48.5895 36.1425C47.9335 36.7683 47.5752 37.6708 47.5752 38.775C47.5752 39.7597 47.8477 40.6039 48.3672 41.2432ZM48.4002 38.775C48.4002 37.887 48.6972 37.1752 49.197 36.6855C49.6974 36.1953 50.4164 35.9125 51.2877 35.9125C52.153 35.9125 52.8688 36.1923 53.3674 36.6808C53.8655 37.1688 54.1627 37.8804 54.1627 38.775C54.1627 39.67 53.8651 40.4017 53.3651 40.909C52.8652 41.4161 52.1497 41.7125 51.2877 41.7125C50.4197 41.7125 49.7009 41.4131 49.1994 40.9043C48.6976 40.3953 48.4002 39.6634 48.4002 38.775Z" fill="white"/>
<path id="Vector_31" fill-rule="evenodd" clip-rule="evenodd" d="M56.4114 40.3157L56.392 40.15H55.5625L55.5755 40.3497C55.6168 40.9831 55.9195 41.5202 56.4736 41.8931C57.0213 42.2616 57.8029 42.4625 58.8001 42.4625C59.925 42.4625 60.7772 42.2931 61.3531 41.9306C61.9449 41.5581 62.2251 40.9945 62.2251 40.275C62.2251 39.7321 62.0787 39.3132 61.7039 39.0104C61.345 38.7205 60.8014 38.559 60.0652 38.452L60.0646 38.4519L58.2645 38.1769L58.263 38.1767C57.718 38.1024 57.297 37.9908 57.015 37.807C56.7489 37.6335 56.6001 37.3923 56.6001 37.0125C56.6001 36.663 56.7788 36.3619 57.1313 36.1399C57.489 35.9146 58.0227 35.775 58.7001 35.775C59.4292 35.775 60.0105 35.9121 60.4179 36.1402C60.822 36.3664 61.0496 36.6774 61.1021 37.0394L61.1253 37.2H61.9675L61.9626 37.0077C61.9482 36.4489 61.6517 35.9608 61.1147 35.6198C60.5827 35.2821 59.8158 35.0875 58.8376 35.0875C57.8448 35.0875 57.0785 35.2649 56.5546 35.6034C56.0204 35.9486 55.7501 36.4546 55.7501 37.0625C55.7501 37.6178 55.8997 38.0464 56.2842 38.3555C56.6527 38.6517 57.2122 38.8161 57.9734 38.9231L57.974 38.9232L60.0091 39.2228C60.4617 39.2954 60.8055 39.425 61.0331 39.6108C61.2525 39.79 61.3751 40.0299 61.3751 40.3625C61.3751 40.7857 61.1668 41.119 60.7549 41.3563C60.3338 41.599 59.7021 41.7375 58.8876 41.7375C58.1289 41.7375 57.5281 41.5854 57.1098 41.3318C56.6958 41.0809 56.46 40.7317 56.4114 40.3157Z" fill="white"/>
<path id="Vector_32" fill-rule="evenodd" clip-rule="evenodd" d="M70.2992 42.1037L70.1485 42.1338C70.1422 42.1351 70.1323 42.1374 70.1192 42.1403C70.0316 42.1603 69.8019 42.2125 69.5742 42.2125C69.4403 42.2125 69.3036 42.2053 69.1813 42.1625C69.049 42.1161 68.942 42.0312 68.8647 41.8964C68.7921 41.7698 68.7497 41.6063 68.7238 41.4056C68.716 41.3448 68.7095 41.2793 68.7043 41.2086C67.9456 42.1012 66.7254 42.3625 65.6242 42.3625C64.7803 42.3625 64.1254 42.2004 63.6783 41.8546C63.222 41.5017 63.0117 40.9811 63.0117 40.3375C63.0117 40.0351 63.0622 39.7651 63.1805 39.5213C63.2991 39.277 63.4801 39.0706 63.7242 38.8875L63.7256 38.8865L63.7269 38.8855C63.9825 38.7009 64.321 38.5816 64.7262 38.4891C65.1328 38.3962 65.6253 38.3265 66.199 38.2517C66.4495 38.2164 66.6908 38.1878 66.9118 38.1616C67.06 38.144 67.199 38.1275 67.3257 38.1108C67.6523 38.0677 67.9141 38.0216 68.1202 37.9495C68.3234 37.8785 68.4573 37.7875 68.5438 37.6638C68.6311 37.5391 68.6867 37.3579 68.6867 37.075C68.6867 36.6752 68.5115 36.3788 68.1642 36.172C67.8044 35.9578 67.253 35.8375 66.5117 35.8375C65.6934 35.8375 65.0935 35.9908 64.7044 36.2432C64.3245 36.4896 64.1367 36.8346 64.1367 37.2625V37.45H63.3261L63.3242 37.2644C63.3174 36.5776 63.6038 36.026 64.1718 35.6555C64.7278 35.2927 65.5387 35.1125 66.5742 35.1125C67.8258 35.1125 68.6249 35.3382 69.1305 35.9421L69.1323 35.9443L69.134 35.9464C69.5041 36.4161 69.5242 36.9179 69.5242 37.625V40.75C69.5242 40.7693 69.5242 40.7882 69.5242 40.8067V40.8067C69.524 40.9063 69.5238 40.9954 69.5293 41.0787C69.5358 41.1771 69.5495 41.2511 69.5724 41.3062C69.5934 41.3569 69.6214 41.3901 69.6624 41.4137C69.7069 41.4394 69.7823 41.4625 69.9117 41.4625C69.9129 41.4624 69.9168 41.4619 69.924 41.4604C69.9341 41.4583 69.9465 41.455 69.9618 41.4503C69.974 41.4466 69.9855 41.4428 69.9984 41.4386L70.0102 41.4348C70.0259 41.4296 70.0466 41.423 70.0662 41.4181L70.2992 41.3598V42.1037ZM67.8065 38.7927C68.1377 38.7406 68.4463 38.6605 68.7242 38.5V39.4184C68.7242 40.7215 67.4952 41.6934 65.7367 41.6934C64.5623 41.6934 63.8742 41.0813 63.8742 40.3684C63.8742 40.101 63.9295 39.9073 64.0221 39.7597C64.1147 39.6121 64.2548 39.4949 64.4513 39.3973C64.8568 39.196 65.454 39.0992 66.2401 38.9788L66.2407 38.9787C66.535 38.9327 66.8102 38.9042 67.0706 38.8782L67.1254 38.8728L67.1254 38.8728C67.3641 38.8491 67.5929 38.8263 67.8065 38.7927Z" fill="white"/>
<path id="Vector_33" fill-rule="evenodd" clip-rule="evenodd" d="M71.4375 33.975H72.2375V32.7625H71.4375V33.975ZM72.2375 35.2875H71.4375V42.2125H72.2375V35.2875Z" fill="white"/>
<path id="Vector_34" fill-rule="evenodd" clip-rule="evenodd" d="M80.561 39.9473L80.5861 39.7375H79.7464L79.716 39.8878C79.525 40.8319 78.5059 41.6375 77.1998 41.6375C76.3378 41.6375 75.6189 41.3411 75.1158 40.8336C74.6126 40.3261 74.3123 39.5944 74.3123 38.7C74.3123 37.8076 74.6206 37.0955 75.1242 36.6064C75.6286 36.1165 76.3422 35.8375 77.1748 35.8375C78.4367 35.8375 79.342 36.3857 79.6338 37.2948L79.6756 37.425H80.532L80.4975 37.208C80.3015 35.9761 78.9558 35.1125 77.1998 35.1125C76.0821 35.1125 75.1503 35.4425 74.4968 36.0676C73.8422 36.6937 73.4873 37.5963 73.4873 38.7C73.4873 39.8033 73.8419 40.7234 74.4946 41.3678C75.1471 42.0119 76.0791 42.3625 77.1998 42.3625C79.0114 42.3625 80.3961 41.3213 80.561 39.9473Z" fill="white"/>
<path id="Vector_35" fill-rule="evenodd" clip-rule="evenodd" d="M88.6498 42.1037L88.4991 42.1338C88.4928 42.1351 88.4829 42.1374 88.4698 42.1403L88.4698 42.1403C88.3821 42.1603 88.1525 42.2125 87.9248 42.2125C87.7909 42.2125 87.6542 42.2053 87.5319 42.1625C87.3996 42.1161 87.2926 42.0312 87.2153 41.8964C87.1427 41.7698 87.1002 41.6063 87.0744 41.4056C87.0666 41.3448 87.0601 41.2793 87.0549 41.2086C86.2962 42.1012 85.0759 42.3625 83.9748 42.3625C83.1309 42.3625 82.4759 42.2004 82.0288 41.8546C81.5726 41.5017 81.3623 40.9811 81.3623 40.3375C81.3623 40.0351 81.4128 39.7651 81.5311 39.5213C81.6497 39.277 81.8307 39.0706 82.0748 38.8875L82.0762 38.8865L82.0775 38.8855C82.3331 38.7009 82.6716 38.5816 83.0768 38.4891C83.4834 38.3962 83.9759 38.3265 84.5496 38.2517C84.8001 38.2164 85.0413 38.1878 85.2624 38.1616C85.4105 38.144 85.5496 38.1275 85.6763 38.1108C86.0029 38.0677 86.2647 38.0216 86.4708 37.9495C86.674 37.8785 86.8078 37.7875 86.8944 37.6638C86.9817 37.5391 87.0373 37.3579 87.0373 37.075C87.0373 36.6752 86.8621 36.3788 86.5148 36.172C86.155 35.9578 85.6036 35.8375 84.8623 35.8375C84.044 35.8375 83.4441 35.9908 83.055 36.2432C82.6751 36.4896 82.4873 36.8346 82.4873 37.2625V37.45H81.6767L81.6748 37.2644C81.6679 36.5776 81.9544 36.026 82.5224 35.6555C83.0784 35.2927 83.8893 35.1125 84.9248 35.1125C86.1764 35.1125 86.9754 35.3382 87.4811 35.9421L87.4829 35.9443L87.4846 35.9464C87.8546 36.4161 87.8748 36.9179 87.8748 37.625V40.75C87.8748 40.7693 87.8748 40.7882 87.8747 40.8067V40.8067C87.8745 40.9063 87.8744 40.9954 87.8799 41.0787C87.8864 41.1771 87.9001 41.2511 87.923 41.3062C87.944 41.3569 87.9719 41.3901 88.0129 41.4137C88.0575 41.4394 88.1329 41.4625 88.2623 41.4625L88.2618 41.4625C88.2618 41.4625 88.2657 41.4622 88.2746 41.4604C88.2847 41.4583 88.2971 41.455 88.3124 41.4503C88.3245 41.4466 88.3361 41.4428 88.349 41.4386L88.3607 41.4348C88.3765 41.4296 88.3972 41.423 88.4168 41.4181L88.6498 41.3598V42.1037ZM86.1821 38.7927C86.5132 38.7406 86.8218 38.6605 87.0998 38.5V39.4184C87.0998 40.7215 85.8708 41.6934 84.1123 41.6934C82.9379 41.6934 82.2498 41.0813 82.2498 40.3684C82.2498 40.101 82.305 39.9073 82.3977 39.7597C82.4903 39.6121 82.6304 39.4949 82.8269 39.3973C83.2323 39.196 83.8296 39.0992 84.6157 38.9788L84.6162 38.9787C84.9106 38.9327 85.1858 38.9042 85.4461 38.8782L85.501 38.8728L85.501 38.8728C85.7397 38.8491 85.9685 38.8263 86.1821 38.7927Z" fill="white"/>
</g>
</svg>
