<svg width="30" height="31" viewBox="0 0 30 31" fill="none" xmlns="http://www.w3.org/2000/svg">
<g id="Vector">
<path d="M0 7.67391C0 7.0683 0 6.7655 0.0201043 6.51005C0.271801 3.31194 2.81194 0.771801 6.01005 0.520104C6.2655 0.5 6.5683 0.5 7.17391 0.5H22.8261C23.4317 0.5 23.7345 0.5 23.99 0.520104C27.1881 0.771801 29.7282 3.31194 29.9799 6.51005C30 6.7655 30 7.0683 30 7.67391V23.3261C30 23.9317 30 24.2345 29.9799 24.49C29.7282 27.6881 27.1881 30.2282 23.99 30.4799C23.7345 30.5 23.4317 30.5 22.8261 30.5H7.17391C6.5683 30.5 6.2655 30.5 6.01005 30.4799C2.81194 30.2282 0.271801 27.6881 0.0201043 24.49C0 24.2345 0 23.9317 0 23.3261V7.67391Z" fill="black"/>
<path d="M8.6087 7.56436L9.63054 8.82774C11.1669 7.66104 13.058 7.02936 15.0035 7.03294C16.9491 7.03652 18.8376 7.67514 20.3696 8.84747L21.3913 7.5841C19.5596 6.20461 17.3123 5.45652 15.0001 5.45652C12.6878 5.45652 10.4404 6.20461 8.6087 7.5841V7.56436ZM21.0925 15.7565C21.0925 19.061 18.6935 21.501 15.313 21.501C14.55 21.513 13.7938 21.3587 13.0994 21.0494C12.405 20.7401 11.7899 20.2834 11.2985 19.7124V25.8043H8.9197V15.6539C8.9197 12.2823 11.46 9.84238 15.0061 9.84238C18.5522 9.84238 21.0884 12.2823 21.0884 15.7249L21.0925 15.7565ZM18.641 15.6539C18.641 13.443 17.1022 11.8717 14.9819 11.8717C12.8615 11.8717 11.2985 13.4509 11.2985 15.6539C11.2985 17.8569 12.8373 19.4401 14.9819 19.4401C17.1264 19.4401 18.641 17.8609 18.641 15.6539Z" fill="white"/>
</g>
</svg>
